<svg xmlns="http://www.w3.org/2000/svg" width="192.16" height="35" viewBox="0 0 192.16 35"><rect class="svg__rect" x="0" y="0" width="67.18" height="35" fill="#A7BFC1"/><rect class="svg__rect" x="65.18" y="0" width="126.97999999999999" height="35" fill="#88C7D4"/><path class="svg__text" d="M15.00 22L13.46 22L16.68 13.47L18.01 13.47L21.24 22L19.69 22L18.99 20.01L15.69 20.01L15.00 22ZM17.34 15.28L16.10 18.82L18.58 18.82L17.34 15.28ZM30.55 22L25.19 22L25.19 13.47L26.67 13.47L26.67 20.82L30.55 20.82L30.55 22ZM34.43 18.13L34.43 18.13L34.43 17.46Q34.43 15.53 35.35 14.44Q36.28 13.35 37.94 13.35L37.94 13.35Q39.36 13.35 40.20 14.05Q41.04 14.76 41.21 16.08L41.21 16.08L39.75 16.08Q39.51 14.54 37.97 14.54L37.97 14.54Q36.97 14.54 36.45 15.26Q35.93 15.98 35.91 17.37L35.91 17.37L35.91 18.02Q35.91 19.40 36.50 20.17Q37.08 20.93 38.12 20.93L38.12 20.93Q39.25 20.93 39.73 20.42L39.73 20.42L39.73 18.75L37.98 18.75L37.98 17.62L41.21 17.62L41.21 20.89Q40.75 21.50 39.93 21.81Q39.11 22.12 38.06 22.12L38.06 22.12Q36.99 22.12 36.17 21.63Q35.34 21.14 34.89 20.24Q34.44 19.33 34.43 18.13ZM45.56 18.00L45.56 18.00L45.56 17.52Q45.56 16.28 46.00 15.32Q46.44 14.37 47.25 13.86Q48.06 13.35 49.10 13.35Q50.14 13.35 50.95 13.85Q51.75 14.35 52.19 15.29Q52.63 16.23 52.64 17.48L52.64 17.48L52.64 17.96Q52.64 19.21 52.20 20.16Q51.77 21.10 50.96 21.61Q50.16 22.12 49.11 22.12L49.11 22.12Q48.07 22.12 47.26 21.61Q46.45 21.10 46.01 20.17Q45.56 19.23 45.56 18.00ZM47.04 17.46L47.04 17.96Q47.04 19.36 47.59 20.13Q48.14 20.90 49.11 20.90L49.11 20.90Q50.09 20.90 50.62 20.15Q51.15 19.40 51.15 17.96L51.15 17.96L51.15 17.51Q51.15 16.09 50.62 15.34Q50.08 14.58 49.10 14.58L49.10 14.58Q48.14 14.58 47.60 15.33Q47.05 16.09 47.04 17.46L47.04 17.46Z" fill="#FFFFFF"/><path class="svg__text" d="M81.45 22L78.72 13.60L81.17 13.60L82.86 18.96L84.64 13.60L86.82 13.60L88.51 19.01L90.28 13.60L92.55 13.60L89.82 22L87.28 22L85.67 16.89L83.99 22L81.45 22ZM99.44 22L97.06 22L97.06 13.60L99.44 13.60L99.44 22ZM106.40 15.48L103.82 15.48L103.82 13.60L111.34 13.60L111.34 15.48L108.78 15.48L108.78 22L106.40 22L106.40 15.48ZM118.09 22L115.71 22L115.71 13.60L118.09 13.60L118.09 16.76L121.33 16.76L121.33 13.60L123.71 13.60L123.71 22L121.33 22L121.33 18.72L118.09 18.72L118.09 22ZM142.23 22L135.84 22L135.84 13.60L138.22 13.60L138.22 20.11L142.23 20.11L142.23 22ZM146.22 17.80L146.22 17.80Q146.22 16.55 146.82 15.55Q147.42 14.56 148.49 14.00Q149.55 13.43 150.88 13.43L150.88 13.43Q152.21 13.43 153.28 14.00Q154.34 14.56 154.95 15.55Q155.55 16.55 155.55 17.80L155.55 17.80Q155.55 19.05 154.95 20.04Q154.34 21.04 153.28 21.60Q152.22 22.17 150.88 22.17L150.88 22.17Q149.55 22.17 148.49 21.60Q147.42 21.04 146.82 20.04Q146.22 19.05 146.22 17.80ZM148.61 17.80L148.61 17.80Q148.61 18.51 148.92 19.05Q149.22 19.60 149.73 19.90Q150.25 20.20 150.88 20.20L150.88 20.20Q151.52 20.20 152.04 19.90Q152.55 19.60 152.85 19.05Q153.15 18.51 153.15 17.80L153.15 17.80Q153.15 17.09 152.85 16.54Q152.55 16 152.04 15.70Q151.52 15.40 150.88 15.40L150.88 15.40Q150.24 15.40 149.73 15.70Q149.22 16 148.92 16.54Q148.61 17.09 148.61 17.80ZM162.86 22L159.27 13.60L161.84 13.60L164.12 19.07L166.45 13.60L168.80 13.60L165.20 22L162.86 22ZM179.70 22L172.95 22L172.95 13.60L179.55 13.60L179.55 15.44L175.31 15.44L175.31 16.85L179.04 16.85L179.04 18.63L175.31 18.63L175.31 20.17L179.70 20.17L179.70 22Z" fill="#FFFFFF" x="78.18"/></svg>