<svg xmlns="http://www.w3.org/2000/svg" version="1.0" width="222" height="217" viewBox="0 0 1280.000000 1280.000000" preserveAspectRatio="xMidYMid meet">
<metadata>
Created by potrace 1.15, written by Peter Selinger 2001-2017
</metadata>
<g transform="translate(0.000000,1280.000000) scale(0.100000,-0.100000)" fill="#D04F4F" stroke="none">
<path d="M6115 12794 c-290 -21 -375 -29 -532 -50 -1734 -232 -3290 -1141 -4315 -2524 -576 -776 -987 -1725 -1163 -2683 -73 -399 -100 -704 -100 -1137 0 -362 9 -505 51 -817 187 -1406 829 -2715 1814 -3701 995 -996 2300 -1638 3713 -1826 312 -42 455 -51 817 -51 362 0 505 9 817 51 1732 231 3290 1142 4315 2524 576 776 987 1725 1163 2683 73 399 100 704 100 1137 0 362 -9 505 -51 817 -187 1406 -829 2715 -1814 3701 -1059 1060 -2457 1713 -3980 1857 -153 15 -718 28 -835 19z m690 -1364 c650 -60 1227 -220 1801 -499 539 -262 941 -548 1360 -966 402 -401 683 -792 943 -1315 358 -721 535 -1463 535 -2250 0 -434 -44 -788 -151 -1215 -126 -504 -345 -1021 -621 -1465 -60 -97 -215 -322 -261 -380 l-20 -25 -3536 3535 c-1944 1944 -3535 3538 -3535 3542 0 9 238 178 360 255 459 290 991 518 1505 646 337 84 624 127 1010 151 97 6 491 -3 610 -14z m-858 -5482 c1943 -1943 3533 -3536 3533 -3540 0 -9 -238 -178 -360 -255 -553 -349 -1198 -602 -1825 -717 -512 -93 -1019 -107 -1535 -40 -749 96 -1520 386 -2163 812 -288 190 -500 364 -763 627 -402 401 -683 792 -943 1315 -358 721 -535 1463 -535 2250 0 434 44 788 151 1215 140 560 396 1137 718 1614 89 133 176 251 184 251 3 0 1596 -1590 3538 -3532z"/>
</g>
</svg>