<svg width="268" height="93" viewBox="0 0 268 93" fill="none" xmlns="http://www.w3.org/2000/svg">
<path fill-rule="evenodd" clip-rule="evenodd" d="M147.508 25.3424V35.1415H120.402V25.3424C115.998 25.3424 112.609 21.9635 112.609 17.5708C112.609 13.1781 115.998 9.79908 120.402 9.79908C123.452 9.79908 126.162 11.4886 127.518 14.1918L130.906 12.5023C129.889 10.8128 128.873 9.12328 127.179 8.10958C128.534 5.74429 130.906 4.05479 133.955 4.05479C138.36 4.05479 141.748 7.43378 141.748 11.8265C141.748 13.1781 141.409 14.5297 140.732 15.8813L144.12 17.9087C145.137 16.2192 145.814 14.1918 145.814 11.8265C145.814 11.1507 145.814 10.8128 145.814 10.137C146.492 9.79908 147.169 9.79908 147.847 9.79908C152.252 9.79908 155.64 13.1781 155.64 17.5708C155.64 21.9635 151.913 25.3424 147.508 25.3424ZM147.508 42.9132H120.402V39.1963H147.508V42.9132ZM147.508 6.08219C146.492 6.08219 145.475 6.42009 144.12 6.42009C142.087 2.70319 138.36 0 133.955 0C129.551 0 125.485 2.36529 123.791 6.42009C122.774 6.08219 121.758 6.08219 120.402 6.08219C113.965 6.08219 108.882 11.1507 108.882 17.5708C108.882 22.6393 112.271 27.0319 116.675 28.3835V46.2922H151.574V28.7214C155.979 27.0319 159.367 22.9772 159.367 17.9087C159.367 11.4886 153.946 6.08219 147.508 6.08219ZM130.228 31.0867H126.501V23.653H130.228V31.0867ZM141.748 31.0867H138.021V23.653H141.748V31.0867Z" fill="#D04F4F"/>
<path d="M2.69605 82V56.8H7.30405V78.4H18.464V82H2.69605ZM30.2836 82.432C28.4836 82.432 26.8876 82.048 25.4956 81.28C24.1036 80.512 23.0116 79.432 22.2196 78.04C21.4276 76.648 21.0316 75.04 21.0316 73.216C21.0316 71.368 21.4156 69.724 22.1836 68.284C22.9756 66.844 24.0556 65.728 25.4236 64.936C26.8156 64.12 28.4476 63.712 30.3196 63.712C32.0716 63.712 33.6196 64.096 34.9636 64.864C36.3076 65.632 37.3516 66.688 38.0956 68.032C38.8636 69.352 39.2476 70.828 39.2476 72.46C39.2476 72.724 39.2356 73 39.2116 73.288C39.2116 73.576 39.1996 73.876 39.1756 74.188H25.6036C25.6996 75.58 26.1796 76.672 27.0436 77.464C27.9316 78.256 28.9996 78.652 30.2476 78.652C31.1836 78.652 31.9636 78.448 32.5876 78.04C33.2356 77.608 33.7156 77.056 34.0276 76.384H38.7076C38.3716 77.512 37.8076 78.544 37.0156 79.48C36.2476 80.392 35.2876 81.112 34.1356 81.64C33.0076 82.168 31.7236 82.432 30.2836 82.432ZM30.3196 67.456C29.1916 67.456 28.1956 67.78 27.3316 68.428C26.4676 69.052 25.9156 70.012 25.6756 71.308H34.5676C34.4956 70.132 34.0636 69.196 33.2716 68.5C32.4796 67.804 31.4956 67.456 30.3196 67.456ZM50.5032 82.432C48.9192 82.432 47.5272 82.18 46.3272 81.676C45.1272 81.148 44.1672 80.428 43.4472 79.516C42.7272 78.604 42.2952 77.548 42.1512 76.348H46.7952C46.9392 77.044 47.3232 77.644 47.9472 78.148C48.5952 78.628 49.4232 78.868 50.4312 78.868C51.4392 78.868 52.1712 78.664 52.6272 78.256C53.1072 77.848 53.3472 77.38 53.3472 76.852C53.3472 76.084 53.0112 75.568 52.3392 75.304C51.6672 75.016 50.7312 74.74 49.5312 74.476C48.7632 74.308 47.9832 74.104 47.1912 73.864C46.3992 73.624 45.6672 73.324 44.9952 72.964C44.3472 72.58 43.8192 72.1 43.4112 71.524C43.0032 70.924 42.7992 70.192 42.7992 69.328C42.7992 67.744 43.4232 66.412 44.6712 65.332C45.9432 64.252 47.7192 63.712 49.9992 63.712C52.1112 63.712 53.7912 64.204 55.0392 65.188C56.3112 66.172 57.0672 67.528 57.3072 69.256H52.9512C52.6872 67.936 51.6912 67.276 49.9632 67.276C49.0992 67.276 48.4272 67.444 47.9472 67.78C47.4912 68.116 47.2632 68.536 47.2632 69.04C47.2632 69.568 47.6112 69.988 48.3072 70.3C49.0032 70.612 49.9272 70.9 51.0792 71.164C52.3272 71.452 53.4672 71.776 54.4992 72.136C55.5552 72.472 56.3952 72.988 57.0192 73.684C57.6432 74.356 57.9552 75.328 57.9552 76.6C57.9792 77.704 57.6912 78.7 57.0912 79.588C56.4912 80.476 55.6272 81.172 54.4992 81.676C53.3712 82.18 52.0392 82.432 50.5032 82.432ZM70.6154 89.92V64.144H74.7194L75.2234 66.7C75.7994 65.908 76.5554 65.212 77.4914 64.612C78.4514 64.012 79.6874 63.712 81.1994 63.712C82.8794 63.712 84.3794 64.12 85.6994 64.936C87.0194 65.752 88.0634 66.868 88.8314 68.284C89.5994 69.7 89.9834 71.308 89.9834 73.108C89.9834 74.908 89.5994 76.516 88.8314 77.932C88.0634 79.324 87.0194 80.428 85.6994 81.244C84.3794 82.036 82.8794 82.432 81.1994 82.432C79.8554 82.432 78.6794 82.18 77.6714 81.676C76.6634 81.172 75.8474 80.464 75.2234 79.552V89.92H70.6154ZM80.2274 78.4C81.6914 78.4 82.9034 77.908 83.8634 76.924C84.8234 75.94 85.3034 74.668 85.3034 73.108C85.3034 71.548 84.8234 70.264 83.8634 69.256C82.9034 68.248 81.6914 67.744 80.2274 67.744C78.7394 67.744 77.5154 68.248 76.5554 69.256C75.6194 70.24 75.1514 71.512 75.1514 73.072C75.1514 74.632 75.6194 75.916 76.5554 76.924C77.5154 77.908 78.7394 78.4 80.2274 78.4ZM102.776 82.432C100.976 82.432 99.3798 82.048 97.9878 81.28C96.5958 80.512 95.5038 79.432 94.7118 78.04C93.9198 76.648 93.5238 75.04 93.5238 73.216C93.5238 71.368 93.9078 69.724 94.6758 68.284C95.4678 66.844 96.5478 65.728 97.9158 64.936C99.3078 64.12 100.94 63.712 102.812 63.712C104.564 63.712 106.112 64.096 107.456 64.864C108.8 65.632 109.844 66.688 110.588 68.032C111.356 69.352 111.74 70.828 111.74 72.46C111.74 72.724 111.728 73 111.704 73.288C111.704 73.576 111.692 73.876 111.668 74.188H98.0958C98.1918 75.58 98.6718 76.672 99.5358 77.464C100.424 78.256 101.492 78.652 102.74 78.652C103.676 78.652 104.456 78.448 105.08 78.04C105.728 77.608 106.208 77.056 106.52 76.384H111.2C110.864 77.512 110.3 78.544 109.508 79.48C108.74 80.392 107.78 81.112 106.628 81.64C105.5 82.168 104.216 82.432 102.776 82.432ZM102.812 67.456C101.684 67.456 100.688 67.78 99.8238 68.428C98.9598 69.052 98.4078 70.012 98.1678 71.308H107.06C106.988 70.132 106.556 69.196 105.764 68.5C104.972 67.804 103.988 67.456 102.812 67.456ZM123.255 82C121.383 82 119.883 81.544 118.755 80.632C117.627 79.72 117.063 78.1 117.063 75.772V67.996H114.003V64.144H117.063L117.603 59.356H121.671V64.144H126.495V67.996H121.671V75.808C121.671 76.672 121.851 77.272 122.211 77.608C122.595 77.92 123.243 78.076 124.155 78.076H126.387V82H123.255ZM132.935 61.372C132.095 61.372 131.399 61.12 130.847 60.616C130.319 60.112 130.055 59.476 130.055 58.708C130.055 57.94 130.319 57.316 130.847 56.836C131.399 56.332 132.095 56.08 132.935 56.08C133.775 56.08 134.459 56.332 134.987 56.836C135.539 57.316 135.815 57.94 135.815 58.708C135.815 59.476 135.539 60.112 134.987 60.616C134.459 61.12 133.775 61.372 132.935 61.372ZM130.631 82V64.144H135.239V82H130.631ZM148.005 82C146.133 82 144.633 81.544 143.505 80.632C142.377 79.72 141.813 78.1 141.813 75.772V67.996H138.753V64.144H141.813L142.353 59.356H146.421V64.144H151.245V67.996H146.421V75.808C146.421 76.672 146.601 77.272 146.961 77.608C147.345 77.92 147.993 78.076 148.905 78.076H151.137V82H148.005ZM162.581 82.432C160.997 82.432 159.605 82.18 158.405 81.676C157.205 81.148 156.245 80.428 155.525 79.516C154.805 78.604 154.373 77.548 154.229 76.348H158.873C159.017 77.044 159.401 77.644 160.025 78.148C160.673 78.628 161.501 78.868 162.509 78.868C163.517 78.868 164.249 78.664 164.705 78.256C165.185 77.848 165.425 77.38 165.425 76.852C165.425 76.084 165.089 75.568 164.417 75.304C163.745 75.016 162.809 74.74 161.609 74.476C160.841 74.308 160.061 74.104 159.269 73.864C158.477 73.624 157.745 73.324 157.073 72.964C156.425 72.58 155.897 72.1 155.489 71.524C155.081 70.924 154.877 70.192 154.877 69.328C154.877 67.744 155.501 66.412 156.749 65.332C158.021 64.252 159.797 63.712 162.077 63.712C164.189 63.712 165.869 64.204 167.117 65.188C168.389 66.172 169.145 67.528 169.385 69.256H165.029C164.765 67.936 163.769 67.276 162.041 67.276C161.177 67.276 160.505 67.444 160.025 67.78C159.569 68.116 159.341 68.536 159.341 69.04C159.341 69.568 159.689 69.988 160.385 70.3C161.081 70.612 162.005 70.9 163.157 71.164C164.405 71.452 165.545 71.776 166.577 72.136C167.633 72.472 168.473 72.988 169.097 73.684C169.721 74.356 170.033 75.328 170.033 76.6C170.057 77.704 169.769 78.7 169.169 79.588C168.569 80.476 167.705 81.172 166.577 81.676C165.449 82.18 164.117 82.432 162.581 82.432ZM182.694 89.92V64.144H186.798L187.302 66.7C187.878 65.908 188.634 65.212 189.57 64.612C190.53 64.012 191.766 63.712 193.278 63.712C194.958 63.712 196.458 64.12 197.778 64.936C199.098 65.752 200.142 66.868 200.91 68.284C201.678 69.7 202.062 71.308 202.062 73.108C202.062 74.908 201.678 76.516 200.91 77.932C200.142 79.324 199.098 80.428 197.778 81.244C196.458 82.036 194.958 82.432 193.278 82.432C191.934 82.432 190.758 82.18 189.75 81.676C188.742 81.172 187.926 80.464 187.302 79.552V89.92H182.694ZM192.306 78.4C193.77 78.4 194.982 77.908 195.942 76.924C196.902 75.94 197.382 74.668 197.382 73.108C197.382 71.548 196.902 70.264 195.942 69.256C194.982 68.248 193.77 67.744 192.306 67.744C190.818 67.744 189.594 68.248 188.634 69.256C187.698 70.24 187.23 71.512 187.23 73.072C187.23 74.632 187.698 75.916 188.634 76.924C189.594 77.908 190.818 78.4 192.306 78.4ZM206.178 82V56.08H210.786V82H206.178ZM221.65 82.432C220.114 82.432 218.854 82.192 217.87 81.712C216.886 81.208 216.154 80.548 215.674 79.732C215.194 78.916 214.954 78.016 214.954 77.032C214.954 75.376 215.602 74.032 216.898 73C218.194 71.968 220.138 71.452 222.73 71.452H227.266V71.02C227.266 69.796 226.918 68.896 226.222 68.32C225.526 67.744 224.662 67.456 223.63 67.456C222.694 67.456 221.878 67.684 221.182 68.14C220.486 68.572 220.054 69.22 219.886 70.084H215.386C215.506 68.788 215.938 67.66 216.682 66.7C217.45 65.74 218.434 65.008 219.634 64.504C220.834 63.976 222.178 63.712 223.666 63.712C226.21 63.712 228.214 64.348 229.678 65.62C231.142 66.892 231.874 68.692 231.874 71.02V82H227.95L227.518 79.12C226.99 80.08 226.246 80.872 225.286 81.496C224.35 82.12 223.138 82.432 221.65 82.432ZM222.694 78.832C224.014 78.832 225.034 78.4 225.754 77.536C226.498 76.672 226.966 75.604 227.158 74.332H223.234C222.01 74.332 221.134 74.56 220.606 75.016C220.078 75.448 219.814 75.988 219.814 76.636C219.814 77.332 220.078 77.872 220.606 78.256C221.134 78.64 221.83 78.832 222.694 78.832ZM243.982 82C242.11 82 240.61 81.544 239.482 80.632C238.354 79.72 237.79 78.1 237.79 75.772V67.996H234.73V64.144H237.79L238.33 59.356H242.398V64.144H247.222V67.996H242.398V75.808C242.398 76.672 242.578 77.272 242.938 77.608C243.322 77.92 243.97 78.076 244.882 78.076H247.114V82H243.982ZM258.558 82.432C256.974 82.432 255.582 82.18 254.382 81.676C253.182 81.148 252.222 80.428 251.502 79.516C250.782 78.604 250.35 77.548 250.206 76.348H254.85C254.994 77.044 255.378 77.644 256.002 78.148C256.65 78.628 257.478 78.868 258.486 78.868C259.494 78.868 260.226 78.664 260.682 78.256C261.162 77.848 261.402 77.38 261.402 76.852C261.402 76.084 261.066 75.568 260.394 75.304C259.722 75.016 258.786 74.74 257.586 74.476C256.818 74.308 256.038 74.104 255.246 73.864C254.454 73.624 253.722 73.324 253.05 72.964C252.402 72.58 251.874 72.1 251.466 71.524C251.058 70.924 250.854 70.192 250.854 69.328C250.854 67.744 251.478 66.412 252.726 65.332C253.998 64.252 255.774 63.712 258.054 63.712C260.166 63.712 261.846 64.204 263.094 65.188C264.366 66.172 265.122 67.528 265.362 69.256H261.006C260.742 67.936 259.746 67.276 258.018 67.276C257.154 67.276 256.482 67.444 256.002 67.78C255.546 68.116 255.318 68.536 255.318 69.04C255.318 69.568 255.666 69.988 256.362 70.3C257.058 70.612 257.982 70.9 259.134 71.164C260.382 71.452 261.522 71.776 262.554 72.136C263.61 72.472 264.45 72.988 265.074 73.684C265.698 74.356 266.01 75.328 266.01 76.6C266.034 77.704 265.746 78.7 265.146 79.588C264.546 80.476 263.682 81.172 262.554 81.676C261.426 82.18 260.094 82.432 258.558 82.432Z" fill="#D04F4F"/>
</svg>
